# xmcd
# Track frame offsets:
# 150
# 22696
# 41990
# 59789
# 81833
# 102823
# 120085
# 139055
# 156035
# 170499
# 177129
#
# Disc length: 2620 seconds
# Revision: 0
# Processed by: cddbd v1.4PL0 Copyright (c) Steve Scherf et al.
# Submitted via: VisiTrax 2.8.1.130 - For more info visit www.synapsa.com
#
DISCID=850a3a0b
DTITLE=Pedro Abrunhosa - Momento
DYEAR=1900
DGENRE=
TTITLE0=Momento, Uma Espécie de Céu
TTITLE1=Sempre: O espaço vazio
TTITLE2=Uma Loucura de Anjo
TTITLE3=Diabo no Corpo
TTITLE4=Deixas em Mim Tanto de Ti
TTITLE5=Tu Não Sabes
TTITLE6=Mais Uma Noite a Vencer
TTITLE7=Hoje é Tudo ou Nada
TTITLE8=Um Mágico no Peito
TTITLE9=Outra Noite Perfeita
TTITLE10=Eu Não Sei Quem Te Perdeu
EXTD=
EXTT0=
EXTT1=
EXTT2=
EXTT3=
EXTT4=
EXTT5=
EXTT6=
EXTT7=
EXTT8=
EXTT9=
EXTT10=
PLAYORDER=
